<svg width="60" height="60" xmlns="http://www.w3.org/2000/svg">
  <g fill="#FFF" fill-rule="nonzero">
    <path d="M29.773 27.242h1v14.445h-1zM29.773.768h1v13.848h-1zM34.607 1.166h1v36h-1zM39.412 2.417h1v31.848h-1zM39.412 47.545h1v1h-1zM44.246 48.057h1v7.109h-1zM44.246 4.635h1v27.867h-1zM44.246 36.142h1v5.403h-1zM49.052 44.929h1v6.796h-1zM49.052 8.104h1v23.517h-1zM49.052 32.161h1v9.412h-1zM53.886 13.592h1v32.645h-1zM58.692 26.73h1v6.37h-1zM5.118 45.185h1v1h-1zM5.118 14.303h1v29.886h-1zM9.953 30.796h1v11.318h-1zM9.953 44.588h1v6.682h-1z"/>
    <path d="M9.953 8.531h1v23.033h-1zM14.787 35.943h1v5.517h-1zM14.787 48.142h1v6.768h-1zM14.787 4.919h1v27.412h-1zM19.592 46.009h1v1h-1zM19.592 56.502h1v1h-1zM19.592 2.588h1v31.393h-1zM24.427 1.251h1v35.46h-1zM36.847 54.386l-.25-.5h.05l.25.5zM37.401 50.15l-.15-.455.1-.046h.1v.273l.1.227zM24.341 50.53c-.597-.17-1.194-.369-1.791-.568-.057-.028-.114-.028-.17-.057l.113-.284.17.057c.57.227 1.166.398 1.764.568l-.086.285zM21.272 45.173h-.1l-.05-.038c-.1-.039-.15-.077-.25-.116l.3-.346c.05.038.15.077.2.077l-.15.192.05.231zM38.951 45.23l-.05-.137v.137-.137l-.05-.09-.15-.228.1-.045h.1v.227l.2.182-.05.045zM29.943 39.884c-.227 0-.483 0-.71-.042l.028-.458c.455.042.91.042 1.365 0l.028.458c-.227 0-.483.042-.71.042zM22.038 31.126v-.5z"/>
    <path d="M29.915 59.8C13.393 59.8 0 46.409 0 29.916 0 13.422 13.393 0 29.886 0c16.522 0 29.915 13.393 29.915 29.886-.028 16.522-13.393 29.887-29.886 29.915zm0-58.264c-15.669 0-28.38 12.682-28.38 28.35 0 15.669 12.683 28.38 28.351 28.38 15.669 0 28.38-12.683 28.38-28.351-.029-15.669-12.711-28.351-28.351-28.38z"/>
    <path d="M36.938 57.924a.793.793 0 0 1-.682-.426c-1.365-2.702 1.166-11.432 2.275-13.99.398-.91.682-1.28 1.109-1.394a25.802 25.802 0 0 1 14.019.113c.398.114.654.54.512.939-.086.256-.285.455-.512.512a25.69 25.69 0 0 0-13.564 9.64 30.44 30.44 0 0 0-2.474 4.123c-.142.313-.398.483-.683.483zm3.27-14.36c-.71 1.08-2.672 7.507-2.843 11.147.455-.796.967-1.536 1.507-2.275a27.313 27.313 0 0 1 11.801-9.327c-3.47-.597-7.052-.427-10.464.455zM22.891 57.924a.76.76 0 0 1-.682-.426 27.3 27.3 0 0 0-2.474-4.124 25.69 25.69 0 0 0-13.564-9.64c-.398-.113-.654-.54-.512-.938.085-.256.284-.455.512-.512 4.578-1.308 9.44-1.365 14.019-.113.398.113.71.483 1.109 1.393 1.109 2.53 3.64 11.29 2.274 13.99a.8.8 0 0 1-.682.37zM9.128 43.137a27.771 27.771 0 0 1 11.83 9.327c.54.74 1.023 1.48 1.478 2.275-.17-3.668-2.133-10.066-2.844-11.147-3.412-.91-6.966-1.052-10.464-.455z"/>
    <path d="M35.915 55.13v-.05h1.535z"/>
    <path d="M35.972 57.697c-.029-.597-.057-1.11-.057-1.621-.029-2.446.256-4.92.824-7.308.086-.341.171-.711.285-1.052a28.57 28.57 0 0 1 10.92-15.64c-1.394.085-2.788.313-4.153.625a25.383 25.383 0 0 0-13.25 8.133 24.48 24.48 0 0 0-1.138 1.393 27.799 27.799 0 0 0-4.607 9.498c-.057.228-.114.455-.17.654a34.572 34.572 0 0 0-.654 3.754l-.683-.057h-.825v-.085c.143-1.337.37-2.673.683-3.953l.17-.683a29.38 29.38 0 0 1 4.863-10.037 19.4 19.4 0 0 1 1.194-1.48c3.669-4.293 8.56-7.307 14.048-8.615a25.749 25.749 0 0 1 7.223-.683.767.767 0 0 1 .34 1.422c-6 3.384-10.549 9.27-12.483 16.18-.113.341-.17.683-.256.995a29.789 29.789 0 0 0-.796 6.91c0 .484.029.967.057 1.536l-1.535.114z"/>
    <path d="M23.915 57.697l-1.536-.114c.029-.569.057-1.052.057-1.507a28.529 28.529 0 0 0-.768-6.939c-.085-.312-.17-.654-.256-.995C19.48 41.204 14.93 35.318 8.93 31.934a.752.752 0 0 1-.256-1.052.84.84 0 0 1 .597-.37 25.749 25.749 0 0 1 7.223.682c5.488 1.308 10.379 4.323 14.047 8.616l-1.166.996a25.164 25.164 0 0 0-13.25-8.133 22.884 22.884 0 0 0-4.152-.626c5.317 3.81 9.156 9.356 10.919 15.669.114.34.199.739.284 1.052.57 2.388.853 4.834.825 7.308-.028.512-.057 1.024-.085 1.62zM29.915 28.237a.742.742 0 0 1-.597-.313c-.114-.142-2.531-3.355-2.531-7.393s2.445-7.251 2.53-7.394a.8.8 0 0 1 .598-.284.8.8 0 0 1 .597.284c.114.143 2.56 3.356 2.56 7.394s-2.446 7.251-2.56 7.393a.742.742 0 0 1-.597.313zm0-13.194c-.654 1.137-1.621 3.184-1.621 5.516s.967 4.351 1.62 5.517c.655-1.138 1.622-3.185 1.622-5.517 0-2.332-.967-4.379-1.621-5.516z"/>
  </g>
</svg>
