<svg xmlns="http://www.w3.org/2000/svg" viewBox="0 0 210.2 210.2">
  <path d="M210.2 105.1C210.2 47.1 163.1 0 105.1 0 47.1 0 0 47.1 0 105.1c0 58 47.1 105.1 105.1 105.1 58-.1 105-47.1 105.1-105.1zM77.8 201v-24l7.4 2.5-7.3 21.5h-.1zm52.5-156.1l-8.9-3c-1.4-.6-3 .1-3.5 1.5s.1 3 1.5 3.5c.1 0 .2.1.3.1l8.9 3-5.9 17.6c0 .1-.1.1-.1.2l-7.1 21-1.7-.6c-1.4-.5-2.9.3-3.4 1.7s.3 2.9 1.7 3.4l1.7.6-12.9 38.6c-.2.2-.3.5-.4.8l-2.9-1.1c-1.5-.5-3-1.1-4.4-1.6-1.4-.6-3 .1-3.5 1.5-.6 1.4.1 3 1.5 3.5 0 0 .1 0 .1.1l4.5 1.6 3.2 1.2-12.1 36-9.1-3.1v-38l.8-2.3 4.1 1.5c.3.1.6.2.9.2 1.5 0 2.7-1.2 2.7-2.7 0-1.1-.7-2.1-1.8-2.5l-4.2-1.5 13-38.9 12 4c.3.1.6.1.9.1 1.5 0 2.7-1.2 2.7-2.7 0-1.2-.7-2.2-1.8-2.6l-12-4 10.2-31 2.7-8 3.5 1.2c.3.1.6.1.9.2 1.5 0 2.7-1.2 2.7-2.7 0-1.2-.7-2.2-1.8-2.6l-3.5-1.2 10.4-31.3c7.3 1.1 14.4 3 21.3 5.7l-11.2 32.6zm16-30.6c7.4 3.4 14.3 7.6 20.6 12.6l-30.5 16.6 9.9-29.2zM193.5 59l-6 3.3c-.1-.4-.2-.7-.4-1.1-.6-1-1.8-1.5-2.9-1.2-2.1.5-51.8 12.8-58.7 32.1-.5 1.4-.8 2.9-.8 4.4l-7.2 3.9 9.1-27.1 56.3-30.7c4 5.2 7.6 10.6 10.6 16.4zm11.3 46.1c0 6.5-.6 13-1.9 19.4L160 147.9c-.4-7-1.9-13.8-4.4-20.3l49-26.7c.2 1.3.2 2.8.2 4.2zm-107 54l33.9-18.5c1.9 6.4 4.5 12.7 7.6 18.6L88.4 187l9.4-27.9zm19.1-57.2l7.7-4.2c.1 2.1.7 4.1 1.7 6l-16.2 18.4 6.8-20.2zm13.6-7.9c4.1-11.5 29.9-21.4 46.3-26.4-4.1 4.6-10 10.9-16.2 16.8-15.4 14.8-23.1 18-26.6 18.4 5.7-6.5 12.4-12 19.9-16.3 1.3-.7 1.8-2.4 1-3.7-.7-1.3-2.4-1.8-3.7-1-7.9 4.5-15 10.2-21 17-.3-1.5-.3-3.2.3-4.8zm-27.1 48.4c.3-.2.5-.3.7-.6 4.3-5.3 15.5-17.6 25-22.7 0 .2-.1.5-.1.8-.5 4.5.2 11.4 2.5 19.7l-33.3 18.1 5.2-15.3zm32.9-5.4c-3.4-12.6-2-19-1.1-19.8.1 0 .1-.1.2-.1 2.6 2.2 6.8 15.3 9.3 29.1.2 1.3 1.3 2.2 2.6 2.2h.5c1.5-.3 2.4-1.7 2.2-3.1-.1-.3-1.5-8.3-3.8-16.3-1-3.7-2.3-7.3-3.9-10.8 13.5 8.9 13.8 35.6 11.3 53.7-7.9-10.5-13.8-22.3-17.3-34.9zm19-10.4c-2.9-6.6-6.8-11-10.7-13.4-.9-.5-1.8-1-2.7-1.3l59.6-32.5c1.8 6.6 2.9 13.4 3.2 20.3l-49.4 26.9zm-14.8-15.2c-2-.6-4.2-.5-6.1.1-4.2.6-8.8 3-13.2 6.2l8.8-9.9c1.1.4 2.2.6 3.3.6 9 0 21.8-11.1 31.1-20 12-11.4 22.4-23.9 22.5-24 .2-.3.4-.6.5-.9l6.6-3.6c3 5.9 5.4 12.1 7.2 18.4l-60.7 33.1zm-62.7-58l25.6-14-9 27.1-16.6 9.1V53.4zm0 23.3l16.1-8.8-9 27.1-7.1 3.9V76.7zM103.9 38L77.8 52.2V30.1l35.1-19.2-9 27.1zm-26.1 62l6.6-3.6-6.6 20V100zm10.1 88.3l51.8-28.3c2.9 5.3 6.1 10.5 9.7 15.3l-53.2 29c-4.4-.4-8.7-1-13-2l4.7-14zm72.3-39.4l42.5-23.2c-1.9 8.9-5 17.6-9.3 25.7L159.3 170c.9-7 1.2-14 .9-21.1zm22-107L127 72l.8-2.3c0-.1.1-.1.1-.2l8.3-24.7 31.7-17.3c5.1 4.4 9.9 9.1 14.3 14.4zm-67.6-36l-1.2 3.7L77.8 29V9.2c8.9-2.5 18.1-3.8 27.3-3.8 3.2 0 6.3.2 9.5.5zM14.5 64.6l13.4-7.3v22.1L6.4 91.2c1.3-9.3 3.9-18.4 7.8-27l.3.4zm0-1.2c3.5-7.6 8-14.8 13.3-21.3v14l-13.3 7.3zM27.8 126l-17 9.3.5.9 16.5-9v22.1l-9 4.9.5.9 8.5-4.6v17.6C15.6 153.1 8 135 6 115.8l21.9-11.9-.1 22.1zm.4-84.3l.1-.1s0 .1.1.1h-.2zM6.3 91.9l.2.3 21.4-11.7v22.1l-22 12c-.3-3.2-.5-6.4-.5-9.6 0-4.3.3-8.7.9-13.1zm27 82.3v-38.4c.4.3 1 .5 1.5.5h6.9c1.5 0 2.7-1.2 2.7-2.7 0-1.5-1.2-2.7-2.7-2.7h-7c-.5 0-1.1.2-1.5.5V89.8c.2 0 .4.1.6.1h22.1c1.5 0 2.7-1.2 2.7-2.7 0-1.5-1.2-2.7-2.7-2.7H33.8c-.2 0-.4 0-.6.1v-41h7.7c1.5 0 2.7-1.2 2.7-2.7 0-1.5-1.2-2.7-2.7-2.7h-9.6c11.2-12.3 25.3-21.7 41-27.2v27.2H55.5c-1.5 0-2.7 1.2-2.7 2.7 0 1.5 1.2 2.7 2.7 2.7h16.8v41H68c-1.5 0-2.7 1.2-2.7 2.7 0 1.5 1.2 2.7 2.7 2.7h4.4v41H51.9c-1.5 0-2.7 1.2-2.7 2.7 0 1.5 1.2 2.7 2.7 2.7h20.4V177H68c-1.5 0-2.7 1.2-2.7 2.7 0 1.5 1.2 2.7 2.7 2.7h4.4v17c-11-3.9-21.3-9.6-30.3-17h9c1.5 0 2.7-1.2 2.7-2.7 0-1.5-1.2-2.7-2.7-2.7H37.8c-.5 0-1 .1-1.4.4-1.1-1.1-2.1-2.2-3.1-3.2zm71.8 30.6c-2.4 0-4.7-.1-7.1-.2l52-28.4c1 1.3 2 2.6 3.1 3.9.5.6 1.3 1 2.1 1 .2 0 .4 0 .7-.1 1-.3 1.8-1.1 2-2.1.5-2.6.9-5.2 1.2-7.6l33.4-18.2c-17.5 31.9-51 51.7-87.4 51.7z" fill="#fff"/>
</svg>
